<svg width="36" height="36" viewBox="0 0 36 36" fill="none" xmlns="http://www.w3.org/2000/svg">
<rect width="36" height="36" fill="white" fill-opacity="0.01" style="mix-blend-mode:multiply"/>
<path d="M18 33.75L11.0522 30.0455C9.07141 28.9918 7.41493 27.4185 6.26058 25.4946C5.10623 23.5706 4.4976 21.3687 4.50001 19.125V4.5C4.50063 3.90345 4.73789 3.33152 5.15971 2.9097C5.58153 2.48788 6.15346 2.25063 6.75001 2.25H29.25C29.8465 2.25063 30.4185 2.48788 30.8403 2.9097C31.2621 3.33152 31.4994 3.90345 31.5 4.5V19.125C31.5024 21.3687 30.8938 23.5706 29.7394 25.4946C28.5851 27.4185 26.9286 28.9918 24.9478 30.0455L18 33.75ZM6.75001 4.5V19.125C6.74806 20.9608 7.24608 22.7624 8.19062 24.3366C9.13516 25.9108 10.4905 27.198 12.1113 28.0601L18 31.2L23.8887 28.0601C25.5095 27.198 26.8649 25.9108 27.8094 24.3366C28.7539 22.7624 29.252 20.9608 29.25 19.125V4.5H6.75001Z" fill="#679CFE"/>
<path d="M15.75 18.6637L12.8362 15.75L11.25 17.3363L15.75 21.8363L24.75 12.8363L23.1637 11.25L15.75 18.6637Z" fill="#013698"/>
</svg>
