<svg width="36" height="36" viewBox="0 0 36 36" fill="none" xmlns="http://www.w3.org/2000/svg">
<path d="M4.5 22.5V24.75H9.65925L2.25 32.1593L3.84075 33.75L11.25 26.3407V31.5H13.5V22.5H4.5ZM27 23.625H29.25V29.25H27V23.625ZM22.5 18H24.75V29.25H22.5V18ZM18 20.25H20.25V29.25H18V20.25Z" fill="#013698"/>
<path d="M31.5 2.25H4.5C3.90326 2.25 3.33097 2.48705 2.90901 2.90901C2.48705 3.33097 2.25 3.90326 2.25 4.5V18H4.5V14.625H31.5011L31.5023 31.5H18V33.75H31.5C32.0965 33.7491 32.6682 33.5118 33.09 33.09C33.5118 32.6682 33.7491 32.0965 33.75 31.5V4.5C33.75 3.90326 33.5129 3.33097 33.091 2.90901C32.669 2.48705 32.0967 2.25 31.5 2.25ZM13.5 12.375H4.5V4.5H13.5V12.375ZM15.75 12.375V4.5H31.5V12.375H15.75Z" fill="#9ABDFE"/>
</svg>
