<svg width="24" height="24" viewBox="0 0 24 24" fill="none" xmlns="http://www.w3.org/2000/svg">
<g clip-path="url(#clip0_165_16824)">
<path d="M8.35909 0.791874C5.96112 1.62375 3.89311 3.20269 2.45882 5.29675C1.02454 7.39082 0.299573 9.88964 0.390418 12.4262C0.481264 14.9627 1.38313 17.4033 2.96355 19.3894C4.54396 21.3755 6.71962 22.8024 9.17096 23.4606C11.1583 23.9734 13.2405 23.9959 15.2385 23.5262C17.0484 23.1197 18.7218 22.2501 20.0947 21.0025C21.5236 19.6644 22.5608 17.9621 23.0947 16.0787C23.6751 14.0306 23.7783 11.8767 23.3966 9.7825H12.2366V14.4119H18.6997C18.5705 15.1502 18.2937 15.8549 17.8859 16.4838C17.478 17.1127 16.9474 17.6528 16.326 18.0719C15.5367 18.5939 14.6471 18.9452 13.7141 19.1031C12.7784 19.2771 11.8186 19.2771 10.8828 19.1031C9.93444 18.907 9.03727 18.5156 8.24846 17.9537C6.98124 17.0567 6.02973 15.7824 5.52971 14.3125C5.02124 12.8151 5.02124 11.1918 5.52971 9.69437C5.88564 8.64478 6.47403 7.68913 7.25096 6.89875C8.14007 5.97765 9.26571 5.31924 10.5044 4.99577C11.743 4.67229 13.0469 4.69624 14.2728 5.065C15.2305 5.35898 16.1063 5.87263 16.8303 6.565C17.5591 5.84 18.2866 5.11312 19.0128 4.38437C19.3878 3.9925 19.7966 3.61937 20.166 3.21812C19.0608 2.18964 17.7635 1.38936 16.3485 0.863124C13.7717 -0.0725202 10.9522 -0.0976647 8.35909 0.791874Z" fill="white"/>
<path d="M8.35875 0.790832C10.9516 -0.0993112 13.7711 -0.0748285 16.3481 0.860207C17.7634 1.39001 19.0601 2.19415 20.1637 3.22646C19.7887 3.62771 19.3931 4.00271 19.0106 4.39271C18.2831 5.11896 17.5562 5.84271 16.83 6.56396C16.106 5.87159 15.2302 5.35794 14.2725 5.06396C13.047 4.69391 11.7432 4.66857 10.5042 4.99072C9.26516 5.31288 8.13883 5.97007 7.24875 6.89021C6.47181 7.68059 5.88342 8.63624 5.5275 9.68583L1.64062 6.67646C3.03189 3.91751 5.44078 1.80713 8.35875 0.790832Z" fill="#E33629"/>
<path d="M0.611401 9.65898C0.820316 8.6236 1.16716 7.62091 1.64265 6.67773L5.52953 9.69461C5.02105 11.192 5.02105 12.8153 5.52953 14.3127C4.23453 15.3127 2.9389 16.3177 1.64265 17.3277C0.452308 14.9583 0.0892746 12.2587 0.611401 9.65898Z" fill="#F8BD00"/>
<path d="M12.2391 9.7793H23.3991C23.7809 11.8735 23.6776 14.0274 23.0972 16.0755C22.5633 17.9589 21.5261 19.6612 20.0972 20.9993C18.8429 20.0205 17.5829 19.0493 16.3285 18.0705C16.9504 17.6511 17.4812 17.1103 17.8891 16.4808C18.297 15.8512 18.5735 15.1458 18.7022 14.4068H12.2391C12.2372 12.8655 12.2391 11.3224 12.2391 9.7793Z" fill="#587DBD"/>
<path d="M1.64062 17.3275C2.93687 16.3275 4.2325 15.3225 5.5275 14.3125C6.02851 15.7829 6.98138 17.0573 8.25 17.9537C9.04127 18.513 9.94037 18.9012 10.89 19.0937C11.8257 19.2677 12.7855 19.2677 13.7213 19.0937C14.6542 18.9358 15.5439 18.5846 16.3331 18.0625C17.5875 19.0412 18.8475 20.0125 20.1019 20.9913C18.7292 22.2395 17.0558 23.1098 15.2456 23.5169C13.2476 23.9866 11.1655 23.9641 9.17813 23.4512C7.60632 23.0316 6.13814 22.2917 4.86563 21.2781C3.51874 20.2088 2.41867 18.8612 1.64062 17.3275Z" fill="#319F43"/>
</g>
<defs>
<clipPath id="clip0_165_16824">
<rect width="24" height="24" fill="white" transform="translate(0 0.00195312)"/>
</clipPath>
</defs>
</svg>
