<svg width="32" height="32" viewBox="0 0 32 32" fill="none" xmlns="http://www.w3.org/2000/svg">
<rect width="32" height="32" fill="#00FFFF"/>
<path d="M15.0621 10.5345C15.3843 9.66389 16.6157 9.66389 16.9379 10.5345L18.0012 13.408C18.1024 13.6818 18.3182 13.8976 18.592 13.9988L21.4655 15.0621C22.3361 15.3843 22.3361 16.6157 21.4655 16.9379L18.592 18.0012C18.3182 18.1024 18.1024 18.3182 18.0012 18.592L16.9379 21.4655C16.6157 22.3361 15.3843 22.3361 15.0621 21.4655L13.9988 18.592C13.8976 18.3182 13.6818 18.1024 13.408 18.0012L10.5345 16.9379C9.66389 16.6157 9.66389 15.3843 10.5345 15.0621L13.408 13.9988C13.6818 13.8976 13.8976 13.6818 13.9988 13.408L15.0621 10.5345Z" fill="#003333"/>
</svg>
