<svg width="32" height="32" viewBox="0 0 32 32" fill="none" xmlns="http://www.w3.org/2000/svg">
<rect width="32" height="32" fill="#333333"/>
<path d="M15.6515 11.6324C15.692 11.2101 16.308 11.2101 16.3485 11.6324C16.3831 11.9923 16.8741 12.0701 17.0182 11.7384C17.1872 11.3494 17.7731 11.5397 17.6811 11.9538C17.6028 12.3068 18.0458 12.5325 18.2853 12.2616C18.5662 11.9438 19.0646 12.3059 18.8492 12.6714C18.6656 12.9829 19.0171 13.3344 19.3286 13.1508C19.6941 12.9354 20.0562 13.4338 19.7384 13.7147C19.4675 13.9542 19.6932 14.3972 20.0462 14.3189C20.4603 14.2269 20.6506 14.8128 20.2616 14.9818C19.9299 15.1259 20.0077 15.6169 20.3676 15.6515C20.7899 15.692 20.7899 16.308 20.3676 16.3485C20.0077 16.3831 19.9299 16.8741 20.2616 17.0182C20.6506 17.1872 20.4603 17.7731 20.0462 17.6811C19.6932 17.6028 19.4675 18.0458 19.7384 18.2853C20.0562 18.5662 19.6941 19.0646 19.3286 18.8492C19.0171 18.6656 18.6656 19.0171 18.8492 19.3286C19.0646 19.6941 18.5662 20.0562 18.2853 19.7384C18.0458 19.4675 17.6028 19.6932 17.6811 20.0462C17.7731 20.4603 17.1872 20.6506 17.0182 20.2616C16.8741 19.9299 16.3831 20.0077 16.3485 20.3676C16.308 20.7899 15.692 20.7899 15.6515 20.3676C15.6169 20.0077 15.1259 19.9299 14.9818 20.2616C14.8128 20.6506 14.2269 20.4603 14.3189 20.0462C14.3972 19.6932 13.9542 19.4675 13.7147 19.7384C13.4338 20.0562 12.9354 19.6941 13.1508 19.3286C13.3344 19.0171 12.9829 18.6656 12.6714 18.8492C12.3059 19.0646 11.9438 18.5662 12.2616 18.2853C12.5325 18.0458 12.3068 17.6028 11.9538 17.6811C11.5397 17.7731 11.3494 17.1872 11.7384 17.0182C12.0701 16.8741 11.9923 16.3831 11.6324 16.3485C11.2101 16.308 11.2101 15.692 11.6324 15.6515C11.9923 15.6169 12.0701 15.1259 11.7384 14.9818C11.3494 14.8128 11.5397 14.2269 11.9538 14.3189C12.3068 14.3972 12.5325 13.9542 12.2616 13.7147C11.9438 13.4338 12.3059 12.9354 12.6714 13.1508C12.9829 13.3344 13.3344 12.9829 13.1508 12.6714C12.9354 12.3059 13.4338 11.9438 13.7147 12.2616C13.9542 12.5325 14.3972 12.3068 14.3189 11.9538C14.2269 11.5397 14.8128 11.3494 14.9818 11.7384C15.1259 12.0701 15.6169 11.9923 15.6515 11.6324Z" fill="#EBEBEB"/>
</svg>
