<svg width="32" height="32" viewBox="0 0 32 32" fill="none" xmlns="http://www.w3.org/2000/svg">
<rect width="32" height="32" fill="#00FFFF"/>
<path d="M15.0489 10.927C15.3483 10.0057 16.6517 10.0057 16.9511 10.9271L17.5716 12.8369C17.7055 13.2489 18.0894 13.5279 18.5227 13.5279H20.5308C21.4995 13.5279 21.9023 14.7675 21.1186 15.3369L19.494 16.5172C19.1435 16.7719 18.9968 17.2232 19.1307 17.6353L19.7512 19.5451C20.0506 20.4664 18.9961 21.2325 18.2124 20.6631L16.5878 19.4828C16.2373 19.2281 15.7627 19.2281 15.4122 19.4828L13.7876 20.6631C13.0039 21.2325 11.9494 20.4664 12.2488 19.5451L12.8693 17.6353C13.0032 17.2232 12.8565 16.7719 12.506 16.5172L10.8814 15.3369C10.0977 14.7675 10.5005 13.5279 11.4692 13.5279H13.4773C13.9106 13.5279 14.2945 13.2489 14.4284 12.8369L15.0489 10.927Z" fill="#003333"/>
</svg>
