<svg width="30" height="30" viewBox="0 0 30 30" fill="none" xmlns="http://www.w3.org/2000/svg">
<rect width="30" height="30" rx="15" fill="#FFE3D6"/>
<path d="M14.8761 11.6881C14.8761 11.5387 14.8168 11.3955 14.7112 11.2899C14.6056 11.1843 14.4624 11.125 14.3131 11.125C14.1637 11.125 14.0205 11.1843 13.9149 11.2899C13.8093 11.3955 13.75 11.5387 13.75 11.6881V15.8171C13.75 16.0198 13.8581 16.206 14.0338 16.3058L16.6613 17.8073C16.7907 17.8772 16.9422 17.8937 17.0836 17.8534C17.225 17.813 17.345 17.719 17.4179 17.5913C17.4909 17.4636 17.511 17.3125 17.474 17.1702C17.437 17.0279 17.3458 16.9058 17.2199 16.8298L14.8761 15.4905V11.6881Z" fill="#FF3236"/>
<path d="M15 6C19.9705 6 24 10.0295 24 15C24 19.9705 19.9705 24 15 24C10.0295 24 6 19.9705 6 15C6 10.0295 10.0295 6 15 6ZM7.22727 15C7.22727 17.0615 8.04618 19.0385 9.50385 20.4961C10.9615 21.9538 12.9385 22.7727 15 22.7727C17.0615 22.7727 19.0385 21.9538 20.4961 20.4961C21.9538 19.0385 22.7727 17.0615 22.7727 15C22.7727 12.9385 21.9538 10.9615 20.4961 9.50385C19.0385 8.04618 17.0615 7.22727 15 7.22727C12.9385 7.22727 10.9615 8.04618 9.50385 9.50385C8.04618 10.9615 7.22727 12.9385 7.22727 15Z" fill="#FF3236"/>
</svg>
