<svg width="32" height="32" viewBox="0 0 32 32" fill="none" xmlns="http://www.w3.org/2000/svg">
<path d="M31.75 31.75H29.5V26.125C29.4983 24.6337 28.9051 23.2039 27.8506 22.1494C26.7961 21.0949 25.3663 20.5017 23.875 20.5V18.25C25.9629 18.2523 27.9646 19.0828 29.4409 20.5591C30.9172 22.0354 31.7477 24.0371 31.75 26.125V31.75Z" fill="#9ABDFE"/>
<path d="M22.75 31.75H20.5V26.125C20.4982 24.6337 19.905 23.204 18.8505 22.1495C17.796 21.095 16.3663 20.5018 14.875 20.5H8.125C6.6337 20.5018 5.20398 21.095 4.14946 22.1495C3.09495 23.204 2.50176 24.6337 2.5 26.125V31.75H0.25V26.125C0.252441 24.0372 1.08291 22.0355 2.55923 20.5592C4.03555 19.0829 6.03717 18.2524 8.125 18.25H14.875C16.9628 18.2524 18.9645 19.0829 20.4408 20.5592C21.9171 22.0355 22.7476 24.0372 22.75 26.125V31.75Z" fill="#9ABDFE"/>
<path d="M20.5 0.25V2.5C21.9918 2.5 23.4226 3.09263 24.4775 4.14752C25.5324 5.20242 26.125 6.63316 26.125 8.125C26.125 9.61684 25.5324 11.0476 24.4775 12.1025C23.4226 13.1574 21.9918 13.75 20.5 13.75V16C22.5886 16 24.5916 15.1703 26.0685 13.6935C27.5453 12.2166 28.375 10.2136 28.375 8.125C28.375 6.03642 27.5453 4.03338 26.0685 2.55653C24.5916 1.07969 22.5886 0.25 20.5 0.25Z" fill="#9ABDFE"/>
<path d="M11.5 2.5C12.6125 2.5 13.7001 2.8299 14.6251 3.44798C15.5501 4.06607 16.2711 4.94457 16.6968 5.97241C17.1226 7.00024 17.234 8.13124 17.0169 9.22238C16.7999 10.3135 16.2641 11.3158 15.4775 12.1025C14.6908 12.8891 13.6885 13.4249 12.5974 13.6419C11.5062 13.859 10.3752 13.7476 9.34741 13.3218C8.31957 12.8961 7.44107 12.1751 6.82298 11.2501C6.2049 10.3251 5.875 9.23752 5.875 8.125C5.875 6.63316 6.46763 5.20242 7.52252 4.14752C8.57742 3.09263 10.0082 2.5 11.5 2.5ZM11.5 0.25C9.94247 0.25 8.41992 0.711861 7.12488 1.57718C5.82985 2.44249 4.82049 3.6724 4.22445 5.11137C3.62841 6.55034 3.47246 8.13374 3.77632 9.66134C4.08017 11.1889 4.8302 12.5921 5.93153 13.6935C7.03287 14.7948 8.43606 15.5448 9.96366 15.8487C11.4913 16.1525 13.0747 15.9966 14.5136 15.4006C15.9526 14.8045 17.1825 13.7952 18.0478 12.5001C18.9131 11.2051 19.375 9.68253 19.375 8.125C19.375 6.03642 18.5453 4.03338 17.0685 2.55653C15.5916 1.07969 13.5886 0.25 11.5 0.25Z" fill="#9ABDFE"/>
</svg>
