<svg width="36" height="36" viewBox="0 0 36 36" fill="none" xmlns="http://www.w3.org/2000/svg">
<path d="M33.75 33.75H31.5V28.125C31.4983 26.6337 30.9051 25.2039 29.8506 24.1494C28.7961 23.0949 27.3663 22.5017 25.875 22.5V20.25C27.9629 20.2523 29.9646 21.0828 31.4409 22.5591C32.9172 24.0354 33.7477 26.0371 33.75 28.125V33.75Z" fill="#9ABDFE"/>
<path d="M24.75 33.75H22.5V28.125C22.4982 26.6337 21.905 25.204 20.8505 24.1495C19.796 23.095 18.3663 22.5018 16.875 22.5H10.125C8.6337 22.5018 7.20398 23.095 6.14946 24.1495C5.09495 25.204 4.50176 26.6337 4.5 28.125V33.75H2.25V28.125C2.25244 26.0372 3.08291 24.0355 4.55923 22.5592C6.03555 21.0829 8.03717 20.2524 10.125 20.25H16.875C18.9628 20.2524 20.9645 21.0829 22.4408 22.5592C23.9171 24.0355 24.7476 26.0372 24.75 28.125V33.75Z" fill="#9ABDFE"/>
<path d="M22.5 2.25V4.5C23.9918 4.5 25.4226 5.09263 26.4775 6.14752C27.5324 7.20242 28.125 8.63316 28.125 10.125C28.125 11.6168 27.5324 13.0476 26.4775 14.1025C25.4226 15.1574 23.9918 15.75 22.5 15.75V18C24.5886 18 26.5916 17.1703 28.0685 15.6935C29.5453 14.2166 30.375 12.2136 30.375 10.125C30.375 8.03642 29.5453 6.03338 28.0685 4.55653C26.5916 3.07969 24.5886 2.25 22.5 2.25Z" fill="#9ABDFE"/>
<path d="M13.5 4.5C14.6125 4.5 15.7001 4.8299 16.6251 5.44798C17.5501 6.06607 18.2711 6.94457 18.6968 7.97241C19.1226 9.00024 19.234 10.1312 19.0169 11.2224C18.7999 12.3135 18.2641 13.3158 17.4775 14.1025C16.6908 14.8891 15.6885 15.4249 14.5974 15.6419C13.5062 15.859 12.3752 15.7476 11.3474 15.3218C10.3196 14.8961 9.44107 14.1751 8.82298 13.2501C8.2049 12.3251 7.875 11.2375 7.875 10.125C7.875 8.63316 8.46763 7.20242 9.52252 6.14752C10.5774 5.09263 12.0082 4.5 13.5 4.5ZM13.5 2.25C11.9425 2.25 10.4199 2.71186 9.12488 3.57718C7.82985 4.44249 6.82049 5.6724 6.22445 7.11137C5.62841 8.55034 5.47246 10.1337 5.77632 11.6613C6.08017 13.1889 6.8302 14.5921 7.93153 15.6935C9.03287 16.7948 10.4361 17.5448 11.9637 17.8487C13.4913 18.1525 15.0747 17.9966 16.5136 17.4006C17.9526 16.8045 19.1825 15.7952 20.0478 14.5001C20.9131 13.2051 21.375 11.6825 21.375 10.125C21.375 8.03642 20.5453 6.03338 19.0685 4.55653C17.5916 3.07969 15.5886 2.25 13.5 2.25Z" fill="#9ABDFE"/>
<path d="M33.75 33.8H31.5V28.175C31.4983 26.6837 30.9051 25.254 29.8506 24.1994C28.7961 23.1449 27.3663 22.5517 25.875 22.55V20.3C27.9629 20.3024 29.9646 21.1328 31.4409 22.6091C32.9172 24.0855 33.7477 26.0872 33.75 28.175V33.8Z" fill="#013698"/>
<path d="M22.5 2.30005V4.55005C23.9918 4.55005 25.4226 5.14268 26.4775 6.19757C27.5324 7.25247 28.125 8.68321 28.125 10.175C28.125 11.6669 27.5324 13.0976 26.4775 14.1525C25.4226 15.2074 23.9918 15.8 22.5 15.8V18.05C24.5886 18.05 26.5916 17.2204 28.0685 15.7435C29.5453 14.2667 30.375 12.2636 30.375 10.175C30.375 8.08647 29.5453 6.08343 28.0685 4.60658C26.5916 3.12973 24.5886 2.30005 22.5 2.30005Z" fill="#013698"/>
</svg>
