<svg width="16" height="16" viewBox="0 0 16 16" fill="none" xmlns="http://www.w3.org/2000/svg">
<rect width="16" height="16" fill="white" fill-opacity="0.01" style="mix-blend-mode:multiply"/>
<path d="M2.5 14V5.789C2.49995 5.61449 2.55786 5.44491 2.66464 5.30689C2.77142 5.16887 2.92102 5.07022 3.08995 5.02644C3.25887 4.98267 3.43756 4.99624 3.59793 5.06503C3.75831 5.13382 3.89129 5.25393 3.976 5.4065L8.524 13.5935C8.60871 13.7461 8.74169 13.8662 8.90207 13.935C9.06244 14.0038 9.24113 14.0173 9.41005 13.9736C9.57898 13.9298 9.72858 13.8311 9.83536 13.6931C9.94214 13.5551 10.0001 13.3855 10 13.211V5M1 8H11.5M1 11H11.5" stroke="#333333" stroke-linecap="round" stroke-linejoin="round"/>
<path d="M16 3H14V1H13V3H11V4H13V6H14V4H16V3Z" fill="#333333"/>
</svg>
