<svg width="20" height="20" viewBox="0 0 20 20" fill="none" xmlns="http://www.w3.org/2000/svg">
<rect width="20" height="20" rx="10" fill="#F1EDFF"/>
<path d="M6.08876 5.19483L6.14166 5.1418C6.1831 5.10026 6.23232 5.0673 6.28651 5.04482C6.3407 5.02233 6.39879 5.01076 6.45746 5.01076C6.51613 5.01076 6.57423 5.02233 6.62842 5.04482C6.68259 5.06729 6.73179 5.10023 6.77321 5.14175L6.08876 5.19483ZM6.08876 5.19483L6.09394 5.2C6.0409 5.27488 6.01187 5.36486 6.01187 5.45783C6.01187 5.57611 6.05884 5.68954 6.14246 5.77319L6.14247 5.7732L7.19135 6.82208C7.2324 6.86445 7.28145 6.89825 7.33566 6.92154C7.39008 6.94492 7.44861 6.95722 7.50783 6.95774C7.56706 6.95825 7.62579 6.94697 7.68061 6.92454C7.73543 6.90211 7.78523 6.86899 7.82711 6.82711C7.86899 6.78523 7.90211 6.73543 7.92454 6.68061C7.94697 6.62579 7.95825 6.56706 7.95774 6.50783C7.95722 6.44861 7.94492 6.39008 7.92154 6.33566C7.89826 6.28145 7.86445 6.2324 7.82208 6.19136L6.77326 5.1418L6.08876 5.19483ZM9.85247 7.79076V7.7722L9.97549 7.87472L15.2584 12.2775C15.846 12.7662 15.4993 13.7222 14.7355 13.7222H12.3526H12.3526C12.2046 13.722 12.0584 13.7535 11.9236 13.8145C11.7889 13.8755 11.6688 13.9646 11.5713 14.0758L9.85247 7.79076ZM9.85247 7.79076C9.76164 7.73977 9.66148 7.70639 9.55726 7.69293C9.40335 7.67304 9.24696 7.69739 9.10638 7.76313C8.96581 7.82888 8.84686 7.9333 8.76346 8.06417C8.68006 8.19505 8.63566 8.34696 8.63545 8.50215V8.50226V15.256C8.63545 16.0109 9.57097 16.3623 10.0678 15.7944L11.5712 14.0758L9.85247 7.79076ZM12.0212 5.14166L11.983 5.10354L11.9783 5.10587C11.9004 5.04527 11.8041 5.01187 11.7044 5.01187C11.5861 5.01187 11.4727 5.05884 11.3891 5.14246L11.389 5.14247L10.3402 6.19135C10.2978 6.2324 10.264 6.28145 10.2407 6.33566C10.2173 6.39008 10.205 6.44861 10.2045 6.50783C10.204 6.56706 10.2153 6.62579 10.2377 6.68061C10.2601 6.73543 10.2933 6.78523 10.3351 6.82711C10.377 6.86899 10.4268 6.90211 10.4816 6.92454C10.5364 6.94697 10.5952 6.95825 10.6544 6.95774C10.7136 6.95722 10.7722 6.94492 10.8266 6.92154C10.8808 6.89826 10.9298 6.86446 10.9709 6.8221L12.0212 5.77326C12.0212 5.77325 12.0212 5.77324 12.0212 5.77323C12.0627 5.73181 12.0957 5.6826 12.1182 5.62842C12.1407 5.57423 12.1522 5.51613 12.1522 5.45746C12.1522 5.39879 12.1407 5.3407 12.1182 5.28651C12.0957 5.23232 12.0627 5.1831 12.0212 5.14166ZM9.39689 4.05564C9.31324 3.97199 9.19979 3.925 9.08149 3.925C8.96319 3.925 8.84974 3.97199 8.76609 4.05564C8.68244 4.13929 8.63545 4.25275 8.63545 4.37104V5.85522C8.63545 5.97352 8.68244 6.08698 8.76609 6.17062C8.84974 6.25427 8.96319 6.30127 9.08149 6.30127C9.19979 6.30127 9.31324 6.25427 9.39689 6.17062C9.48054 6.08698 9.52754 5.97352 9.52754 5.85522V4.37104C9.52754 4.25275 9.48054 4.13929 9.39689 4.05564ZM5.05564 7.76609C4.97199 7.84974 4.925 7.96319 4.925 8.08149C4.925 8.19979 4.97199 8.31324 5.05564 8.39689C5.13929 8.48054 5.25275 8.52754 5.37104 8.52754H6.85522C6.97352 8.52754 7.08698 8.48054 7.17062 8.39689C7.25427 8.31324 7.30127 8.19979 7.30127 8.08149C7.30127 7.96319 7.25427 7.84974 7.17062 7.76609C7.08698 7.68244 6.97352 7.63545 6.85522 7.63545H5.37104C5.25275 7.63545 5.13929 7.68244 5.05564 7.76609ZM9.52754 15.0579V8.66239L14.5283 12.8301H12.3526C12.0774 12.83 11.8054 12.8889 11.5548 13.0026C11.3042 13.1163 11.0808 13.2823 10.8996 13.4894L9.52754 15.0579Z" fill="#6F48FF" stroke="#6F48FF" stroke-width="0.15"/>
</svg>
